<!-- <svg width="20" height="20" viewBox="0 0 20 20" fill="none" xmlns="http://www.w3.org/2000/svg">
<path fill-rule="evenodd" clip-rule="evenodd" d="M14.1086 5.83342C14.1351 5.77435 14.1475 5.70999 14.1449 5.64535H14.1667C14.0735 3.42167 12.2374 1.66675 10.0041 1.66675C7.77083 1.66675 5.93477 3.42167 5.84157 5.64535C5.83059 5.70756 5.83059 5.7712 5.84157 5.83342H5.77643C4.70851 5.83342 3.56695 6.53839 3.23553 8.43348L2.58742 13.5957C2.05715 17.3859 4.00885 18.3334 6.55711 18.3334H13.4654C16.0063 18.3334 17.8991 16.9614 17.4277 13.5957L16.787 8.43348C16.3966 6.59145 15.2919 5.83342 14.2387 5.83342H14.1086ZM12.911 5.83342C12.8878 5.77337 12.8755 5.70969 12.8747 5.64535C12.8747 4.04744 11.5749 2.75207 9.97146 2.75207C8.36803 2.75207 7.0682 4.04744 7.0682 5.64535C7.07919 5.70756 7.07919 5.7712 7.0682 5.83342H12.911ZM7.58083 10.1239C7.17408 10.1239 6.84434 9.78451 6.84434 9.36586C6.84434 8.94721 7.17408 8.60782 7.58083 8.60782C7.98758 8.60782 8.31732 8.94721 8.31732 9.36586C8.31732 9.78451 7.98758 10.1239 7.58083 10.1239ZM11.6684 9.36586C11.6684 9.78451 11.9981 10.1239 12.4048 10.1239C12.8116 10.1239 13.1413 9.78451 13.1413 9.36586C13.1413 8.94721 12.8116 8.60782 12.4048 8.60782C11.9981 8.60782 11.6684 8.94721 11.6684 9.36586Z" fill="#7986AC"/>
</svg> -->


<svg xmlns="http://www.w3.org/2000/svg" viewBox="0 0 24 24" width="24" height="24" color="#999999" fill="none">
    <path d="M3.87289 17.0194L2.66933 9.83981C2.48735 8.75428 2.39637 8.21152 2.68773 7.85576C2.9791 7.5 3.51461 7.5 4.58564 7.5H19.4144C20.4854 7.5 21.0209 7.5 21.3123 7.85576C21.6036 8.21152 21.5126 8.75428 21.3307 9.83981L20.1271 17.0194C19.7282 19.3991 19.5287 20.5889 18.7143 21.2945C17.9 22 16.726 22 14.3782 22H9.62182C7.27396 22 6.10003 22 5.28565 21.2945C4.47127 20.5889 4.27181 19.3991 3.87289 17.0194Z" stroke="currentColor" stroke-width="1.5" />
    <path d="M17.5 7.5C17.5 4.46243 15.0376 2 12 2C8.96243 2 6.5 4.46243 6.5 7.5" stroke="currentColor" stroke-width="1.5" />
</svg>