<!-- <svg xmlns="http://www.w3.org/2000/svg" width="24" height="24" viewBox="0 0 24 24" fill="none" stroke="currentColor" stroke-width="2" stroke-linecap="round" stroke-linejoin="round">
  <path d="M11 4H4a2 2 0 0 0-2 2v14a2 2 0 0 0 2 2h14a2 2 0 0 0 2-2v-7"></path>
  <path d="M18.5 2.5a2.121 2.121 0 0 1 3 3L12 15l-4 1 1-4 9.5-9.5z"></path>
</svg> -->

<svg xmlns="http://www.w3.org/2000/svg" viewBox="0 0 24 24" width="24" height="24" color="#999999" fill="none">
    <path d="M22 20H10C7.17157 20 5.75736 20 4.87868 19.1213C4 18.2426 4 16.8284 4 14V2" stroke="currentColor" stroke-width="1.5" stroke-linecap="round" />
    <path d="M6 20C9.68373 16.4365 13.8235 11.7106 20 15.2551" stroke="currentColor" stroke-width="1.5" />
    <path d="M2 4L14 4C16.8284 4 18.2426 4 19.1213 4.87868C20 5.75736 20 7.17157 20 10L20 22" stroke="currentColor" stroke-width="1.5" stroke-linecap="round" />
    <circle cx="8.5" cy="8.5" r="1.5" stroke="currentColor" stroke-width="1.5" stroke-linecap="round" stroke-linejoin="round" />
</svg>