<!-- <svg width="24" height="24" viewBox="0 0 24 24" fill="none" xmlns="http://www.w3.org/2000/svg">
<path fill-rule="evenodd" clip-rule="evenodd" d="M8.87774 6.37856C8.87774 8.24523 7.33886 9.75821 5.43887 9.75821C3.53999 9.75821 2 8.24523 2 6.37856C2 4.51298 3.53999 3 5.43887 3C7.33886 3 8.87774 4.51298 8.87774 6.37856ZM20.4933 4.89833C21.3244 4.89833 22 5.56203 22 6.37856C22 7.19618 21.3244 7.85989 20.4933 7.85989H13.9178C13.0856 7.85989 12.4101 7.19618 12.4101 6.37856C12.4101 5.56203 13.0856 4.89833 13.9178 4.89833H20.4933ZM3.50777 15.958H10.0833C10.9155 15.958 11.5911 16.6217 11.5911 17.4393C11.5911 18.2558 10.9155 18.9206 10.0833 18.9206H3.50777C2.67555 18.9206 2 18.2558 2 17.4393C2 16.6217 2.67555 15.958 3.50777 15.958ZM18.5611 20.7778C20.4611 20.7778 22 19.2648 22 17.3992C22 15.5325 20.4611 14.0196 18.5611 14.0196C16.6623 14.0196 15.1223 15.5325 15.1223 17.3992C15.1223 19.2648 16.6623 20.7778 18.5611 20.7778Z" fill="#7986AC"/>
</svg> -->

<svg xmlns="http://www.w3.org/2000/svg" viewBox="0 0 24 24" width="24" height="24" color="#999999" fill="none">
    <path d="M22 12C22 6.47715 17.5228 2 12 2C6.47715 2 2 6.47715 2 12C2 17.5228 6.47715 22 12 22C12.8417 22 14 22.1163 14 21C14 20.391 13.6832 19.9212 13.3686 19.4544C12.9082 18.7715 12.4523 18.0953 13 17C13.6667 15.6667 14.7778 15.6667 16.4815 15.6667C17.3334 15.6667 18.3334 15.6667 19.5 15.5C21.601 15.1999 22 13.9084 22 12Z" stroke="currentColor" stroke-width="1.5" />
    <path d="M7 15.002L7.00868 14.9996" stroke="currentColor" stroke-width="2" stroke-linecap="round" stroke-linejoin="round" />
    <circle cx="9.5" cy="8.5" r="1.5" stroke="currentColor" stroke-width="1.5" />
    <circle cx="16.5" cy="9.5" r="1.5" stroke="currentColor" stroke-width="1.5" />
</svg>
