<!-- <svg width="20" height="20" viewBox="0 0 20 20" fill="none" xmlns="http://www.w3.org/2000/svg">
<path d="M7.61248 17.3112V14.7631C7.61248 14.1126 8.14364 13.5853 8.79886 13.5853H11.194C11.5087 13.5853 11.8104 13.7094 12.0329 13.9303C12.2554 14.1512 12.3804 14.4507 12.3804 14.7631V17.3112C12.3784 17.5816 12.4852 17.8416 12.6771 18.0336C12.8691 18.2255 13.1302 18.3334 13.4026 18.3334H15.0367C15.7999 18.3354 16.5325 18.0358 17.0728 17.5008C17.6132 16.9657 17.9168 16.2392 17.9168 15.4816V8.22246C17.9168 7.61047 17.6436 7.02995 17.1707 6.63731L11.6118 2.22997C10.6449 1.45722 9.25942 1.48217 8.32132 2.28923L2.88934 6.63731C2.39411 7.01838 2.09812 7.60061 2.0835 8.22246V15.4742C2.0835 17.0533 3.37298 18.3334 4.96364 18.3334H6.5604C7.12618 18.3334 7.58599 17.8803 7.59009 17.3186L7.61248 17.3112Z" fill="#7986AC"/>
</svg> -->
<svg xmlns="http://www.w3.org/2000/svg" viewBox="0 0 24 24" width="24" height="24" color="#999" fill="#999">
    <path d="M7.08848 4.76364L6.08847 5.54453C4.57182 6.72887 3.81348 7.32105 3.40674 8.15601C3 8.99097 3 9.95552 3 11.8846V13.9767C3 17.763 3 19.6562 4.17157 20.8325C5.11466 21.7793 6.52043 21.964 9 22V18.0057C9 17.0738 9 16.6078 9.15224 16.2403C9.35523 15.7502 9.74458 15.3609 10.2346 15.1579C10.6022 15.0057 11.0681 15.0057 12 15.0057C12.9319 15.0057 13.3978 15.0057 13.7654 15.1579C14.2554 15.3609 14.6448 15.7502 14.8478 16.2403C15 16.6078 15 17.0738 15 18.0057V22C17.4796 21.964 18.8853 21.7793 19.8284 20.8325C21 19.6562 21 17.763 21 13.9767V11.8846C21 9.95552 21 8.99097 20.5933 8.15601C20.1865 7.32105 19.4282 6.72887 17.9115 5.54453L16.9115 4.76364C14.5521 2.92121 13.3724 2 12 2C10.6276 2 9.44787 2.92121 7.08848 4.76364Z" stroke="currentColor" stroke-width="1.5" stroke-linejoin="round" />
</svg>