<!-- <svg width="20" height="20" viewBox="0 0 20 20" fill="none" xmlns="http://www.w3.org/2000/svg">
<path fill-rule="evenodd" clip-rule="evenodd" d="M6.38881 18.3334H13.611C16.4362 18.3334 18.3337 16.3517 18.3337 13.4028V6.59735C18.3337 3.64851 16.4362 1.66675 13.6118 1.66675H6.38881C3.56441 1.66675 1.66699 3.64851 1.66699 6.59735V13.4028C1.66699 16.3517 3.56441 18.3334 6.38881 18.3334ZM7.08271 9.16675C5.93384 9.16675 5.00033 8.23197 5.00033 7.08342C5.00033 5.93486 5.93384 5.00008 7.08271 5.00008C8.23074 5.00008 9.16509 5.93486 9.16509 7.08342C9.16509 8.23197 8.23074 9.16675 7.08271 9.16675ZM16.5177 12.445C16.7967 13.1606 16.6517 14.0205 16.3534 14.7292C15.9998 15.572 15.3227 16.2101 14.4696 16.4887C14.0909 16.6126 13.6937 16.6667 13.2973 16.6667H6.2742C5.57532 16.6667 4.95689 16.499 4.44991 16.1869C4.13232 15.9908 4.07617 15.5384 4.31165 15.2452C4.7055 14.755 5.09432 14.2631 5.48649 13.7669C6.23397 12.8174 6.7376 12.5422 7.29737 12.7839C7.52446 12.8836 7.75239 13.0333 7.98703 13.1915C8.61216 13.6164 9.48115 14.2003 10.6258 13.5665C11.4092 13.1277 11.8635 12.3752 12.2591 11.7199L12.2658 11.7089C12.2937 11.663 12.3215 11.6171 12.3491 11.5714L12.3493 11.5711L12.3493 11.5711C12.4823 11.3511 12.6134 11.134 12.7618 10.934C12.9479 10.6838 13.6375 9.90118 14.5308 10.4585C15.0998 10.8093 15.5783 11.2841 16.0903 11.7923C16.2855 11.9867 16.4247 12.2077 16.5177 12.445Z" fill="#7986AC"/>
</svg> -->


<!-- <svg xmlns="http://www.w3.org/2000/svg" viewBox="0 0 24 24" width="24" height="24" color="#999999" fill="none">
    <path d="M10 7.5H8.4C5.38301 7.5 3.87452 7.5 2.93726 8.41122C2 9.32245 2 10.789 2 13.7222V15.2778C2 18.211 2 19.6776 2.93726 20.5888C3.87452 21.5 5.38301 21.5 8.4 21.5H11.6C14.617 21.5 16.1255 21.5 17.0627 20.5888C18 19.6776 18 18.211 18 15.2778V11.5" stroke="currentColor" stroke-width="1.5" stroke-linecap="round" stroke-linejoin="round" />
    <path d="M17.5 17.7857L13.4327 13.7712C13.2576 13.5984 13.0104 13.5 12.7513 13.5C12.5061 13.5 12.271 13.5881 12.0977 13.7449L8.42105 17.0714L6.71522 15.5281C6.54372 15.3729 6.31111 15.2857 6.06857 15.2857C5.80735 15.2857 5.5586 15.3868 5.38506 15.5634L2.5 18.5" stroke="currentColor" stroke-width="1.5" stroke-linecap="round" stroke-linejoin="round" />
    <path d="M13 7.5C13.9122 6.28555 15.3645 5.5 17.0004 5.5C19.7618 5.5 22.0004 7.73858 22.0004 10.5C22.0004 11.6258 21.6283 12.6647 21.0004 13.5005M13 7.5L14.0004 3.5M13 7.5L16.5004 8.5" stroke="currentColor" stroke-width="1.5" stroke-linecap="round" stroke-linejoin="round" />
    <path d="M7.49 11.99V12" stroke="currentColor" stroke-width="2" stroke-linecap="round" stroke-linejoin="round" />
</svg> -->

<svg xmlns="http://www.w3.org/2000/svg" viewBox="0 0 24 24" width="24" height="24" color="#999999" fill="none">
    <path d="M12 22C17.5228 22 22 17.5228 22 12C22 6.47715 17.5228 2 12 2C7.52232 2 3.77426 4.94289 2.5 9H5" stroke="currentColor" stroke-width="1.5" stroke-linecap="round" stroke-linejoin="round" />
    <path d="M12 8V12L14 14" stroke="currentColor" stroke-width="1.5" stroke-linecap="round" stroke-linejoin="round" />
    <path d="M2 12C2 12.3373 2.0152 12.6709 2.04494 13M9 22C8.6584 21.8876 8.32471 21.7564 8 21.6078M3.20939 17C3.01655 16.6284 2.84453 16.2433 2.69497 15.8462M4.83122 19.3065C5.1369 19.6358 5.46306 19.9441 5.80755 20.2292" stroke="currentColor" stroke-width="1.5" stroke-linecap="round" stroke-linejoin="round" />
</svg>