<!-- <svg width="20" height="20" viewBox="0 0 20 20" fill="none" xmlns="http://www.w3.org/2000/svg">
<path fill-rule="evenodd" clip-rule="evenodd" d="M14.4118 6.07596C14.4118 8.52348 12.4494 10.486 10.0002 10.486C7.55174 10.486 5.58851 8.52348 5.58851 6.07596C5.58851 3.62843 7.55174 1.66675 10.0002 1.66675C12.4494 1.66675 14.4118 3.62843 14.4118 6.07596ZM10.0002 18.3334C6.38547 18.3334 3.3335 17.7459 3.3335 15.4792C3.3335 13.2117 6.40465 12.645 10.0002 12.645C13.6157 12.645 16.6668 13.2325 16.6668 15.4992C16.6668 17.7667 13.5957 18.3334 10.0002 18.3334Z" fill="#7986AC"/>
</svg> -->


<svg xmlns="http://www.w3.org/2000/svg" viewBox="0 0 24 24" width="24" height="24" color="#999999" fill="none">
    <circle cx="12" cy="12" r="10" stroke="currentColor" stroke-width="1.5" />
    <path d="M7.5 17C9.8317 14.5578 14.1432 14.4428 16.5 17M14.4951 9.5C14.4951 10.8807 13.3742 12 11.9915 12C10.6089 12 9.48797 10.8807 9.48797 9.5C9.48797 8.11929 10.6089 7 11.9915 7C13.3742 7 14.4951 8.11929 14.4951 9.5Z" stroke="currentColor" stroke-width="1.5" stroke-linecap="round" />
</svg>