<!-- <svg width="20" height="20" viewBox="0 0 20 20" fill="none" xmlns="http://www.w3.org/2000/svg">
<path d="M12.793 3.32837C12.6172 3.39478 12.5 3.56274 12.5 3.75024C12.5 3.93774 12.6172 4.10571 12.793 4.17212L15 5.00024L15.8281 7.20728C15.8945 7.38306 16.0625 7.50024 16.25 7.50024C16.4375 7.50024 16.6055 7.38306 16.6719 7.20728L17.5 5.00024L19.707 4.17212C19.8828 4.10571 20 3.93774 20 3.75024C20 3.56274 19.8828 3.39478 19.707 3.32837L17.5 2.50024L16.6719 0.293213C16.6055 0.117432 16.4375 0.000244141 16.25 0.000244141C16.0625 0.000244141 15.8945 0.117432 15.8281 0.293213L15 2.50024L12.793 3.32837ZM8.01172 2.86353C7.91016 2.64087 7.6875 2.50024 7.44531 2.50024C7.20313 2.50024 6.98047 2.64087 6.87891 2.86353L4.81641 7.31665L0.363281 9.37524C0.140625 9.47681 0 9.69946 0 9.94556C0 10.1917 0.140625 10.4104 0.363281 10.512L4.82031 12.5706L6.875 17.0237C6.97656 17.2463 7.19922 17.387 7.44141 17.387C7.68359 17.387 7.90625 17.2463 8.00781 17.0237L10.0664 12.5667L14.5234 10.5081C14.7461 10.4065 14.8867 10.1838 14.8867 9.94165C14.8867 9.69946 14.7461 9.47681 14.5234 9.37524L10.0703 7.32056L8.01172 2.86353ZM15 15.0002L12.793 15.8284C12.6172 15.8948 12.5 16.0627 12.5 16.2502C12.5 16.4377 12.6172 16.6057 12.793 16.6721L15 17.5002L15.8281 19.7073C15.8945 19.8831 16.0625 20.0002 16.25 20.0002C16.4375 20.0002 16.6055 19.8831 16.6719 19.7073L17.5 17.5002L19.707 16.6721C19.8828 16.6057 20 16.4377 20 16.2502C20 16.0627 19.8828 15.8948 19.707 15.8284L17.5 15.0002L16.6719 12.7932C16.6055 12.6174 16.4375 12.5002 16.25 12.5002C16.0625 12.5002 15.8945 12.6174 15.8281 12.7932L15 15.0002Z" fill="#7986AC"/>
</svg> -->

<svg xmlns="http://www.w3.org/2000/svg" viewBox="0 0 24 24" width="24" height="24" color="#999999" fill="none">
    <circle cx="7" cy="8" r="1.5" stroke="currentColor" stroke-width="1.5" stroke-linecap="round" stroke-linejoin="round" />
    <path d="M20.9977 11C21 11.4701 21 11.9693 21 12.5C21 16.9783 21 19.2175 19.6088 20.6088C18.2175 22 15.9783 22 11.5 22C7.02166 22 4.78249 22 3.39124 20.6088C2 19.2175 2 16.9783 2 12.5C2 8.02166 2 5.78249 3.39124 4.39124C4.78249 3 7.02166 3 11.5 3C12.0307 3 12.5299 3 13 3.00231" stroke="currentColor" stroke-width="1.5" stroke-linecap="round" />
    <path d="M18.5 2L18.7579 2.69703C19.0961 3.61102 19.2652 4.06802 19.5986 4.40139C19.932 4.73477 20.389 4.90387 21.303 5.24208L22 5.5L21.303 5.75792C20.389 6.09613 19.932 6.26524 19.5986 6.59861C19.2652 6.93198 19.0961 7.38898 18.7579 8.30297L18.5 9L18.2421 8.30297C17.9039 7.38898 17.7348 6.93198 17.4014 6.59861C17.068 6.26524 16.611 6.09613 15.697 5.75792L15 5.5L15.697 5.24208C16.611 4.90387 17.068 4.73477 17.4014 4.40139C17.7348 4.06802 17.9039 3.61102 18.2421 2.69703L18.5 2Z" stroke="currentColor" stroke-width="1.5" stroke-linejoin="round" />
    <path d="M4.5 21.5C8.87246 16.275 13.7741 9.38406 20.9975 14.0424" stroke="currentColor" stroke-width="1.5" />
</svg>